inDegrees=yes
name=ik_S48_A12_T02
DataType=double
version=3
OpenSimVersion=4.3-2021-08-27-4bc7ad9
endheader
time	pelvis_tilt	pelvis_list	pelvis_rotation	pelvis_tx	pelvis_ty	pelvis_tz	hip_flexion_r	hip_adduction_r	hip_rotation_r	knee_angle_r	knee_angle_r_beta	ankle_angle_r	subtalar_angle_r	mtp_angle_r	hip_flexion_l	hip_adduction_l	hip_rotation_l	knee_angle_l	knee_angle_l_beta	ankle_angle_l	subtalar_angle_l	mtp_angle_l	lumbar_extension	lumbar_bending	lumbar_rotation	arm_flex_r	arm_add_r	arm_rot_r	elbow_flex_r	pro_sup_r	wrist_flex_r	wrist_dev_r	arm_flex_l	arm_add_l	arm_rot_l	elbow_flex_l	pro_sup_l	wrist_flex_l	wrist_dev_l
13.91999999999979	-1.757555138002134	-1.2557449876756	40.98799466121435	0	0.9399999999999999	0	36.04476558149004	-9.804775355897767	-9.421117667755986	41.8009700029804	0.7295645570793918	0	0	0	36.04476558149004	-9.804775355897767	-9.421117667755986	41.8009700029804	0.7295645570793918	0	0	0	-1.798923604847576	0.1922774956318568	1.867877651912085	18.64332474439691	-6.06863231106867	0.4110940788114744	3.697768375370215	134.1399497147954	0	0	42.36602680837832	-40.68973913977626	7.001781570077718	51.05734810013871	60.82189738011673	0	0
13.93999999999979	-1.744426093942792	-1.307928180221722	41.15855104839795	0	0.9399999999999999	0	36.04884468650361	-9.805080906391089	-9.421699372903751	41.80511497506652	0.7296369004896979	0	0	0	36.04884468650361	-9.805080906391089	-9.421699372903751	41.80511497506652	0.7296369004896979	0	0	0	-1.820401799503085	0.1460128738063006	1.747279751802416	18.66670338169961	-6.004080263021266	0.5036098013894184	3.641508400138013	134.0174886874663	0	0	40.43814700604079	-39.77871008906979	5.464448507327193	49.84689657669027	62.20586237405666	0	0
13.95999999999979	-1.730627896107862	-1.339872242401526	41.28697278222688	0	0.9399999999999999	0	36.0540498243086	-9.805470686216992	-9.42244166023614	41.81040046271785	0.7297291496517871	0	0	0	36.0540498243086	-9.805470686216992	-9.42244166023614	41.81040046271785	0.7297291496517871	0	0	0	-1.830389649550862	0.117677688614891	1.623598054148336	18.67042462743978	-5.92665581467335	0.5379618861293998	3.6489484351965	134.0229187767371	0	0	38.35627115101403	-38.64038177350531	3.996575817108321	47.75979464455988	63.56092450948233	0	0
13.97999999999979	-1.70203723336637	-1.350648629644346	41.39382968879593	0	0.9399999999999999	0	36.05901082482981	-9.805841562024916	-9.423148511963525	41.8154404262683	0.7298171136099231	0	0	0	36.05901082482981	-9.805841562024916	-9.423148511963525	41.8154404262683	0.7298171136099231	0	0	0	-1.815187545375991	0.09419907898469132	1.548938098414925	18.59197627233354	-5.875221839345692	0.5145297254484148	3.65393381209176	134.0414094452426	0	0	36.47144617493263	-37.48009077205517	2.658122073424606	46.48604876725049	64.9177194571693	0	0
13.99999999999979	-1.720233558453464	-1.406540500074708	41.52760563296889	0	0.9399999999999999	0	36.06505124893027	-9.806293034577019	-9.424009251644147	41.82157083204549	0.7299241093752182	0	0	0	36.06505124893027	-9.806293034577019	-9.424009251644147	41.82157083204549	0.7299241093752182	0	0	0	-1.86433089626249	0.06616263191481632	1.465239408876725	18.63657382101954	-5.849518478000112	0.5246879203806244	3.66548984309265	133.972108722316	0	0	34.98369312171157	-36.26085658925034	1.313792165037975	44.89071687090974	66.86512347271415	0	0
14.01999999999979	-1.738315070905982	-1.455767125285083	41.61744842615164	0	0.9399999999999999	0	36.07035460179898	-9.8066882845295	-9.424763736573981	41.82696081200481	0.7300181822721249	0	0	0	36.07035460179898	-9.8066882845295	-9.424763736573981	41.82696081200481	0.7300181822721249	0	0	0	-1.910671623696582	0.04533149102339888	1.377099950844684	18.72636270119843	-5.790647019405968	0.5197952844985823	3.622287479895435	134.0127778081187	0	0	33.58306995004841	-35.14078418590795	0.06142365942419237	43.29816837076148	68.88531724087341	0	0
14.03999999999979	-1.732088633656196	-1.461534275186494	41.63179433549068	0	0.9399999999999999	0	36.07558215511317	-9.807077583117298	-9.425507225002335	41.83227183069326	0.7301108770348732	0	0	0	36.07558215511317	-9.807077583117298	-9.425507225002335	41.83227183069326	0.7301108770348732	0	0	0	-1.908823316131359	0.03587377914225778	1.365785742808419	18.6776927553244	-5.816635860397708	0.4733638761013247	3.67844190096056	134.041028157558	0	0	32.18291989219792	-34.13497901723507	-0.8483425663917653	42.81360509247514	70.14218420252764	0	0
14.05999999999979	-1.69630944331174	-1.497145152159012	41.6439619648286	0	0.9399999999999999	0	36.08075207563524	-9.807462204385081	-9.426242211237701	41.83752300912508	0.7302025273881182	0	0	0	36.08075207563524	-9.807462204385081	-9.426242211237701	41.83752300912508	0.7302025273881182	0	0	0	-1.902803909442343	-0.01871652131885686	1.416379001196813	18.53181618086935	-5.741565010884665	0.2223422600247486	3.781683182843472	134.2437872760757	0	0	30.71246929181788	-32.9680761240008	-1.467886853385409	41.47240012892101	71.45182620187917	0	0
14.07999999999979	-1.698364146916922	-1.503597664971549	41.65648893832771	0	0.9399999999999999	0	36.08552944356077	-9.807816912724673	-9.426920647349098	41.84237937663234	0.7302872869908068	0	0	0	36.08552944356077	-9.807816912724673	-9.426920647349098	41.84237937663234	0.7302872869908068	0	0	0	-1.907180993256012	-0.02290812454435747	1.430673318020227	18.54661101447929	-5.751952978069202	0.1860570337347061	3.778241003263784	134.2402097619855	0	0	29.1771614474068	-31.7331478383324	-2.149624697686166	40.22738220806465	72.55029274986065	0	0
14.09999999999979	-1.680752127254489	-1.484724460816588	41.78933158475019	0	0.9399999999999999	0	36.0905530525485	-9.808189534639119	-9.427633758816022	41.84748482644365	0.7303763938998095	0	0	0	36.0905530525485	-9.808189534639119	-9.427633758816022	41.84748482644365	0.7303763938998095	0	0	0	-1.880492394423109	-0.01941418970923284	1.343732949210362	18.44281936843293	-5.74890874937454	0.3319201544391657	3.613406608385054	134.1948756263796	0	0	27.66748429938711	-30.50904599317306	-3.157214272452042	38.84652315672503	73.97980882733974	0	0
14.11999999999979	-1.661298947121611	-1.478881174793704	41.94216362742333	0	0.9399999999999999	0	36.09524081122792	-9.808536568976415	-9.428298494288562	41.85225240448739	0.7304596038340185	0	0	0	36.09524081122792	-9.808536568976415	-9.428298494288562	41.85225240448739	0.7304596038340185	0	0	0	-1.86155718889164	-0.02615451042571592	1.240670220503551	18.35347710950506	-5.735989798663435	0.346192515591654	3.47969442412427	134.2882318329403	0	0	26.26829372778273	-29.37577412307669	-4.278682605391801	37.43254316185472	75.58382890450135	0	0
14.13999999999979	-1.658904569335217	-1.496759817855887	41.97393400909833	0	0.9399999999999999	0	36.09984593748636	-9.808873660009324	-9.428946826052821	41.85698043025314	0.73054212345075	0	0	0	36.09984593748636	-9.808873660009324	-9.428946826052821	41.85698043025314	0.73054212345075	0	0	0	-1.871183926649333	-0.04278380701652552	1.270685683330133	18.32417842479358	-5.730530455456925	0.1582423906373542	3.512166137664553	134.4527891916711	0	0	26.31686852425493	-29.27951929911668	-4.219959687809911	36.36694998598244	75.90823702801465	0	0
14.15999999999979	-1.666896687806592	-1.493593618084448	42.00861061630081	0	0.9399999999999999	0	36.17976573288762	-9.812927524191601	-9.437940176966279	41.96147529236625	0.7323659028460412	0	0	0	36.17976573288762	-9.812927524191601	-9.437940176966279	41.96147529236625	0.7323659028460412	0	0	0	-1.873902761211126	-0.03697103387841272	1.217324547932053	18.27072712361958	-5.733620215673562	0.1783177211530582	3.535204099586632	134.5121803635471	0	0	23.67950467285476	-26.76301275068946	-5.912452737126435	33.59732428140961	78.77661487193478	0	0
14.17999999999979	-1.681033990856903	-1.532639590671709	42.08786474460788	0	0.9399999999999999	0	36.18353951543739	-9.813202621657126	-9.438470857902374	41.96532002960351	0.7324330061697055	0	0	0	36.18353951543739	-9.813202621657126	-9.438470857902374	41.96532002960351	0.7324330061697055	0	0	0	-1.908618832162808	-0.05998913294899229	1.254338586885952	18.26446902620332	-5.729145419970847	0.1543464411299373	3.551702960013188	134.4619535661874	0	0	22.65819088875627	-25.37550231799201	-6.32427186745167	32.16732461425154	79.91461906360742	0	0
14.19999999999979	-1.706287946548077	-1.519291162831083	42.11830217150496	0	0.9399999999999999	0	36.18847091906553	-9.813562091225219	-9.439164441109893	41.97033966741281	0.7325206153767353	0	0	0	36.18847091906553	-9.813562091225219	-9.439164441109893	41.97033966741281	0.7325206153767353	0	0	0	-1.917314237763728	-0.03362874071438286	1.236704925252649	18.26913666052227	-5.750061804886236	0.2528662643585541	3.566726460920877	134.4378376208656	0	0	21.58159235034346	-23.92683036947027	-6.947871009974182	30.61671999408822	81.1449790942155	0	0
14.21999999999979	-1.715854693749661	-1.500696926996423	42.16349649233478	0	0.9399999999999999	0	36.19444810802204	-9.813997701569209	-9.440005203068656	41.97641766964218	0.7326266965275814	0	0	0	36.19444810802204	-9.813997701569209	-9.440005203068656	41.97641766964218	0.7326266965275814	0	0	0	-1.910775220927939	-0.01479317627237526	1.236324457335634	18.21859480792097	-5.774124398796491	0.2396374897408102	3.565483720370567	134.4595320843246	0	0	20.62909982210766	-22.55460810359878	-7.462952214010282	29.07159839971297	82.00774813255379	0	0
14.23999999999979	-1.734427730096959	-1.470727873072395	42.22419483572678	0	0.9399999999999999	0	36.19852427008635	-9.814293590706546	-9.440577200172024	41.98057334767718	0.732699226791945	0	0	0	36.19852427008635	-9.814293590706546	-9.440577200172024	41.98057334767718	0.732699226791945	0	0	0	-1.902755472515783	0.01729687375980442	1.24903780915813	18.18525099685695	-5.853385837258545	0.147334010134008	3.542900663905404	134.5075174974002	0	0	19.76534543792584	-21.26969795342233	-7.988325847002812	28.54910141866028	82.69040683331224	0	0
14.25999999999978	-1.737345267333069	-1.464284984668564	42.32698889545406	0	0.9399999999999999	0	36.20311544614955	-9.814626711010751	-9.441221408432618	41.98525129248181	0.7327808723310124	0	0	0	36.20311544614955	-9.814626711010751	-9.441221408432618	41.98525129248181	0.7327808723310124	0	0	0	-1.900031780429718	0.02592205285268984	1.173537461398161	18.17736265806598	-5.87158591960624	0.1266377667766829	3.553478915042054	134.5040619385802	0	0	19.0777744903309	-20.02296919144302	-8.783061655998919	26.73873195739744	83.6231214722512	0	0
